<svg width="785" height="773" viewBox="0 0 785 773" fill="none" xmlns="http://www.w3.org/2000/svg">
<path fill-rule="evenodd" clip-rule="evenodd" d="M505.736 595.833C472.969 610.626 445.075 631.96 413.031 648.261C369.745 670.28 329.523 722.276 282.741 709.269C236.607 696.444 234.85 628.107 205.232 590.489C180.399 558.948 139.413 541.62 122.195 505.355C104.651 468.402 97.156 424.573 107.689 385.04C117.972 346.445 158.874 325.168 179.342 290.868C199.558 256.99 201.228 213.843 227.442 184.36C256.015 152.224 292.148 120.641 334.888 115.926C377.654 111.209 418.277 136.441 454.725 159.288C486.871 179.437 500.129 220.906 532.891 240.035C577.565 266.119 644.56 250.06 677.911 289.602C708.903 326.347 703.181 383.897 694.038 431.097C685.194 476.761 662.179 520.954 627.167 551.584C594.331 580.31 545.499 577.881 505.736 595.833Z" fill="#820A97"/>
</svg>
