<svg width="1007" height="262" viewBox="0 0 1007 262" fill="none" xmlns="http://www.w3.org/2000/svg">
<path d="M346.8 207.36C345.84 207.36 345.024 207.024 344.352 206.352C343.776 205.776 343.488 205.008 343.488 204.048V170.64C337.92 177.84 330.144 181.44 320.16 181.44C310.176 181.44 302.64 178.272 297.552 171.936C292.464 165.504 289.776 157.344 289.488 147.456L289.344 142.56L289.488 137.664C289.776 127.68 292.416 119.52 297.408 113.184C302.496 106.848 310.08 103.68 320.16 103.68C330.528 103.68 338.4 107.376 343.776 114.768V108.432C343.776 107.472 344.064 106.704 344.64 106.128C345.312 105.456 346.128 105.12 347.088 105.12H353.712C354.672 105.12 355.44 105.456 356.016 106.128C356.688 106.704 357.024 107.472 357.024 108.432V204.048C357.024 205.008 356.688 205.776 356.016 206.352C355.44 207.024 354.672 207.36 353.712 207.36H346.8ZM323.184 169.776C329.616 169.776 334.56 167.664 338.016 163.44C341.472 159.216 343.296 154.272 343.488 148.608C343.584 147.552 343.632 145.68 343.632 142.992C343.632 140.304 343.584 138.48 343.488 137.52C343.2 131.472 341.376 126.288 338.016 121.968C334.752 117.552 329.808 115.344 323.184 115.344C316.368 115.344 311.376 117.456 308.208 121.68C305.136 125.904 303.456 131.472 303.168 138.384L303.024 142.56C303.024 160.704 309.744 169.776 323.184 169.776ZM406.373 181.44C397.253 181.44 390.197 178.512 385.205 172.656C380.213 166.704 377.717 158.832 377.717 149.04V108.432C377.717 107.472 378.005 106.704 378.581 106.128C379.253 105.456 380.069 105.12 381.029 105.12H388.229C389.189 105.12 389.957 105.456 390.533 106.128C391.205 106.704 391.541 107.472 391.541 108.432V148.32C391.541 162.624 397.781 169.776 410.261 169.776C416.309 169.776 421.109 167.904 424.661 164.16C428.213 160.32 429.989 155.04 429.989 148.32V108.432C429.989 107.472 430.277 106.704 430.853 106.128C431.525 105.456 432.341 105.12 433.301 105.12H440.501C441.461 105.12 442.229 105.456 442.805 106.128C443.381 106.704 443.669 107.472 443.669 108.432V176.688C443.669 177.648 443.381 178.464 442.805 179.136C442.229 179.712 441.461 180 440.501 180H433.733C432.773 180 431.957 179.712 431.285 179.136C430.709 178.464 430.421 177.648 430.421 176.688V170.352C427.733 174 424.469 176.784 420.629 178.704C416.789 180.528 412.037 181.44 406.373 181.44ZM495.014 181.44C485.126 181.44 477.206 178.416 471.254 172.368C465.398 166.224 462.182 157.872 461.606 147.312L461.462 142.416L461.606 137.664C462.278 127.296 465.542 119.04 471.398 112.896C477.35 106.752 485.174 103.68 494.87 103.68C505.526 103.68 513.782 107.088 519.638 113.904C525.494 120.624 528.422 129.744 528.422 141.264V143.712C528.422 144.672 528.086 145.488 527.414 146.16C526.838 146.736 526.07 147.024 525.11 147.024H475.286V148.32C475.574 154.56 477.446 159.888 480.902 164.304C484.454 168.624 489.11 170.784 494.87 170.784C499.286 170.784 502.886 169.92 505.67 168.192C508.55 166.368 510.662 164.496 512.006 162.576C512.87 161.424 513.494 160.752 513.878 160.56C514.358 160.272 515.174 160.128 516.326 160.128H523.382C524.246 160.128 524.966 160.368 525.542 160.848C526.118 161.328 526.406 162 526.406 162.864C526.406 164.976 525.062 167.52 522.374 170.496C519.782 173.472 516.086 176.064 511.286 178.272C506.582 180.384 501.158 181.44 495.014 181.44ZM514.742 137.088V136.656C514.742 130.032 512.918 124.656 509.27 120.528C505.718 116.304 500.918 114.192 494.87 114.192C488.822 114.192 484.022 116.304 480.47 120.528C477.014 124.656 475.286 130.032 475.286 136.656V137.088H514.742ZM548.952 180C547.992 180 547.176 179.712 546.504 179.136C545.928 178.464 545.64 177.648 545.64 176.688V108.576C545.64 107.616 545.928 106.8 546.504 106.128C547.176 105.456 547.992 105.12 548.952 105.12H555.576C556.536 105.12 557.352 105.456 558.024 106.128C558.696 106.8 559.032 107.616 559.032 108.576V114.912C562.968 108.384 569.688 105.12 579.192 105.12H584.808C585.768 105.12 586.536 105.456 587.112 106.128C587.784 106.704 588.12 107.472 588.12 108.432V114.336C588.12 115.296 587.784 116.064 587.112 116.64C586.536 117.216 585.768 117.504 584.808 117.504H576.168C570.984 117.504 566.904 119.04 563.928 122.112C560.952 125.088 559.464 129.168 559.464 134.352V176.688C559.464 177.648 559.128 178.464 558.456 179.136C557.784 179.712 556.968 180 556.008 180H548.952ZM613.448 207.36C612.68 207.36 612.008 207.072 611.432 206.496C610.856 205.92 610.568 205.248 610.568 204.48C610.568 203.808 610.808 202.944 611.288 201.888L622.376 175.536L594.872 110.592C594.392 109.344 594.152 108.528 594.152 108.144C594.152 107.28 594.44 106.56 595.016 105.984C595.592 105.408 596.312 105.12 597.176 105.12H604.232C605.768 105.12 606.92 105.936 607.688 107.568L629.576 159.984L652.04 107.568C652.808 105.936 654.008 105.12 655.64 105.12H662.407C663.271 105.12 663.992 105.408 664.568 105.984C665.144 106.56 665.432 107.232 665.432 108C665.432 108.288 665.192 109.152 664.712 110.592L623.816 204.912C623.048 206.544 621.848 207.36 620.216 207.36H613.448Z" fill="#3E0685"/>
<path d="M711.621 181.44C701.157 181.44 692.469 178.848 685.557 173.664C678.645 168.48 674.997 160.896 674.613 150.912C674.613 150.048 674.901 149.328 675.477 148.752C676.053 148.08 676.821 147.744 677.781 147.744H685.557C687.573 147.744 688.821 148.848 689.301 151.056C689.877 157.2 692.229 161.76 696.357 164.736C700.485 167.712 705.669 169.2 711.909 169.2C719.109 169.2 724.629 166.848 728.469 162.144C732.405 157.344 734.373 150.912 734.373 142.848V91.728H683.253C682.293 91.728 681.477 91.44 680.805 90.864C680.229 90.192 679.941 89.376 679.941 88.416V82.512C679.941 81.552 680.229 80.784 680.805 80.208C681.477 79.536 682.293 79.2 683.253 79.2H745.317C746.373 79.2 747.189 79.536 747.765 80.208C748.437 80.784 748.773 81.6 748.773 82.656V143.136C748.773 154.848 745.461 164.16 738.837 171.072C732.309 177.984 723.237 181.44 711.621 181.44ZM801.734 181.44C791.174 181.44 782.966 178.464 777.11 172.512C771.35 166.56 768.278 158.64 767.894 148.752L767.75 142.56L767.894 136.368C768.278 126.576 771.398 118.704 777.254 112.752C783.11 106.704 791.27 103.68 801.734 103.68C812.198 103.68 820.358 106.704 826.214 112.752C832.07 118.704 835.19 126.576 835.574 136.368C835.67 137.424 835.718 139.488 835.718 142.56C835.718 145.632 835.67 147.696 835.574 148.752C835.19 158.64 832.07 166.56 826.214 172.512C820.454 178.464 812.294 181.44 801.734 181.44ZM801.734 170.352C807.782 170.352 812.534 168.432 815.99 164.592C819.542 160.752 821.462 155.232 821.75 148.032C821.846 147.072 821.894 145.248 821.894 142.56C821.894 139.872 821.846 138.048 821.75 137.088C821.462 129.888 819.542 124.368 815.99 120.528C812.534 116.688 807.782 114.768 801.734 114.768C795.686 114.768 790.886 116.688 787.334 120.528C783.782 124.368 781.91 129.888 781.718 137.088L781.574 142.56L781.718 148.032C781.91 155.232 783.782 160.752 787.334 164.592C790.886 168.432 795.686 170.352 801.734 170.352ZM890.758 181.44C880.39 181.44 872.518 177.84 867.142 170.64V176.688C867.142 177.648 866.806 178.464 866.134 179.136C865.558 179.712 864.79 180 863.83 180H857.206C856.246 180 855.43 179.712 854.758 179.136C854.182 178.464 853.894 177.648 853.894 176.688V81.072C853.894 80.112 854.182 79.344 854.758 78.768C855.43 78.096 856.246 77.76 857.206 77.76H864.262C865.222 77.76 865.99 78.096 866.566 78.768C867.142 79.344 867.43 80.112 867.43 81.072V114.192C873.094 107.184 880.87 103.68 890.758 103.68C900.742 103.68 908.278 106.992 913.366 113.616C918.454 120.144 921.19 128.352 921.574 138.24C921.67 139.296 921.718 140.736 921.718 142.56C921.718 144.384 921.67 145.824 921.574 146.88C921.19 156.864 918.454 165.12 913.366 171.648C908.278 178.176 900.742 181.44 890.758 181.44ZM887.734 169.776C894.55 169.776 899.494 167.664 902.566 163.44C905.734 159.216 907.462 153.648 907.75 146.736C907.846 145.776 907.894 144.384 907.894 142.56C907.894 124.416 901.174 115.344 887.734 115.344C881.302 115.344 876.358 117.456 872.902 121.68C869.446 125.904 867.622 130.848 867.43 136.512L867.286 142.128L867.43 147.6C867.718 153.648 869.494 158.88 872.758 163.296C876.118 167.616 881.11 169.776 887.734 169.776ZM965.31 181.44C958.59 181.44 952.926 180.384 948.318 178.272C943.806 176.064 940.398 173.568 938.094 170.784C935.886 168 934.782 165.696 934.782 163.872C934.782 162.912 935.118 162.192 935.79 161.712C936.558 161.136 937.326 160.848 938.094 160.848H944.574C945.534 160.848 946.398 161.328 947.166 162.288C949.47 164.976 951.966 167.088 954.654 168.624C957.342 170.16 960.942 170.928 965.454 170.928C970.446 170.928 974.478 169.968 977.55 168.048C980.718 166.032 982.302 163.296 982.302 159.84C982.302 157.536 981.63 155.664 980.286 154.224C979.038 152.688 976.83 151.392 973.662 150.336C970.59 149.184 965.982 147.936 959.838 146.592C951.486 144.768 945.534 142.128 941.982 138.672C938.526 135.216 936.798 130.752 936.798 125.28C936.798 121.632 937.854 118.176 939.966 114.912C942.174 111.552 945.342 108.864 949.47 106.848C953.694 104.736 958.734 103.68 964.59 103.68C970.734 103.68 975.966 104.688 980.286 106.704C984.606 108.72 987.822 111.12 989.934 113.904C992.142 116.592 993.246 118.848 993.246 120.672C993.246 121.536 992.91 122.256 992.238 122.832C991.662 123.408 990.942 123.696 990.078 123.696H984.03C982.878 123.696 981.918 123.216 981.15 122.256C979.614 120.432 978.27 119.04 977.118 118.08C976.062 117.024 974.478 116.112 972.366 115.344C970.35 114.576 967.758 114.192 964.59 114.192C959.982 114.192 956.43 115.2 953.934 117.216C951.438 119.136 950.19 121.68 950.19 124.848C950.19 126.864 950.718 128.592 951.774 130.032C952.83 131.376 954.846 132.624 957.822 133.776C960.894 134.928 965.31 136.128 971.07 137.376C980.19 139.296 986.622 142.08 990.366 145.728C994.206 149.28 996.126 153.84 996.126 159.408C996.126 163.536 994.926 167.28 992.526 170.64C990.126 174 986.574 176.64 981.87 178.56C977.262 180.48 971.742 181.44 965.31 181.44Z" fill="#F91A6A"/>
<path d="M204.688 115C204.688 171.691 161.966 216 111.229 216C60.4923 216 17.77 171.691 17.77 115C17.77 58.3098 60.4923 14 111.229 14C161.966 14 204.688 58.3098 204.688 115Z" stroke="#38106B" stroke-width="28"/>
<path d="M231.082 120.656C231.082 175.847 187.951 219.771 135.738 219.771C83.5238 219.771 40.3931 175.847 40.3931 120.656C40.3931 65.4651 83.5238 21.541 135.738 21.541C187.951 21.541 231.082 65.4651 231.082 120.656Z" stroke="#F91A6A" stroke-width="28"/>
<rect x="83.2764" y="131.967" width="35.5285" height="124.474" transform="rotate(41.9919 83.2764 131.967)" fill="#38106B"/>
<path d="M104.001 145.717L130.407 169.486L47.1309 262L20.7248 238.231L104.001 145.717Z" fill="#F91A6A"/>
</svg>
