<svg width="665" height="711" viewBox="0 0 665 711" fill="none" xmlns="http://www.w3.org/2000/svg">
<path d="M556.884 312.039C556.884 466.586 440.39 587.578 301.807 587.578C163.224 587.578 46.7297 466.586 46.7297 312.039C46.7297 157.492 163.224 36.5 301.807 36.5C440.39 36.5 556.884 157.492 556.884 312.039Z" stroke="#38106B" stroke-width="73"/>
<path d="M628.5 327.385C628.5 477.912 510.851 597.809 368.307 597.809C225.763 597.809 108.115 477.912 108.115 327.385C108.115 176.858 225.763 56.9616 368.307 56.9616C510.851 56.9616 628.5 176.858 628.5 327.385Z" stroke="#F91A6A" stroke-width="73"/>
<rect x="225.96" y="358.077" width="96.4022" height="337.745" transform="rotate(41.9919 225.96 358.077)" fill="#38106B"/>
<path d="M282.195 395.384L353.845 459.879L127.884 710.905L56.2344 646.409L282.195 395.384Z" fill="#F91A6A"/>
</svg>
