<svg width="1440" height="354" viewBox="0 0 1440 354" fill="none" xmlns="http://www.w3.org/2000/svg">
<path fill-rule="evenodd" clip-rule="evenodd" d="M-233 354L-177.087 293.022C-121.174 232.045 -10.4449 110.09 101.381 49.1124C213.206 -11.8651 325.032 -11.8651 435.761 26.1209C547.587 64.1069 659.413 140.079 771.239 194.059C881.968 247.039 993.794 278.028 1105.62 255.036C1217.45 232.045 1328.17 156.073 1384.09 117.087L1440 79.1014V354H1384.09C1328.17 354 1217.45 354 1105.62 354C993.794 354 881.968 354 771.239 354C659.413 354 547.587 354 435.761 354C325.032 354 213.206 354 101.381 354C-10.4449 354 -121.174 354 -177.087 354H-233Z" fill="#FF9DF5"/>
</svg>
