<svg width="1440" height="608" viewBox="0 0 1440 608" fill="none" xmlns="http://www.w3.org/2000/svg">
<path fill-rule="evenodd" clip-rule="evenodd" d="M1785 608L1710.62 529.185C1636.25 450.37 1487.5 292.741 1338.75 191.407C1190 90.0741 1041.25 45.037 892.5 112.593C743.75 180.148 595 360.296 446.25 461.63C297.5 562.963 148.75 585.481 74.375 596.741L0 608V0H74.375C148.75 0 297.5 0 446.25 0C595 0 743.75 0 892.5 0C1041.25 0 1190 0 1338.75 0C1487.5 0 1636.25 0 1710.62 0H1785V608Z" fill="#FF9DF5"/>
</svg>
