<svg width="646" height="756" viewBox="0 0 646 756" fill="none" xmlns="http://www.w3.org/2000/svg">
<path fill-rule="evenodd" clip-rule="evenodd" d="M249.268 572.836C221.381 550.147 189.824 534.741 160.912 513.372C121.856 484.507 57.3608 471.79 48.0681 424.131C38.904 377.133 99.2373 344.994 119.635 301.679C136.737 265.36 133.902 220.952 158.635 189.332C183.838 157.112 219.686 130.804 259.755 122.541C298.873 114.475 336.198 141.54 376.032 144.504C415.374 147.432 454.711 129.626 492.806 139.884C534.328 151.065 578.737 169.256 602.072 205.373C625.42 241.512 621.022 289.13 616.892 331.949C613.25 369.712 582.091 400.118 579.636 437.977C576.289 489.6 620.619 542.336 600.17 589.852C581.168 634.007 527.137 654.63 480.833 667.566C436.036 680.08 386.216 679.263 343.16 661.65C302.78 645.131 283.11 600.37 249.268 572.836Z" fill="#820A97"/>
</svg>
