<svg width="1440" height="590" viewBox="0 0 1440 590" fill="none" xmlns="http://www.w3.org/2000/svg">
<path fill-rule="evenodd" clip-rule="evenodd" d="M-127 590L-60.6667 513.519C5.66667 437.037 138.333 284.074 271 185.741C403.667 87.4074 536.333 43.7037 669 109.259C801.667 174.815 934.333 349.63 1067 447.963C1199.67 546.296 1332.33 568.148 1398.67 579.074L1465 590V0H1398.67C1332.33 0 1199.67 0 1067 0C934.333 0 801.667 0 669 0C536.333 0 403.667 0 271 0C138.333 0 5.66667 0 -60.6667 0H-127V590Z" fill="#FF9DF5"/>
</svg>
