<?xml version="1.0" encoding="UTF-8" standalone="no"?>
<!DOCTYPE svg PUBLIC "-//W3C//DTD SVG 1.1//EN"
 "http://www.w3.org/Graphics/SVG/1.1/DTD/svg11.dtd">
<!-- Generated by graphviz version 2.47.3 (20210619.1520)
 -->
<!-- Title: dependencies Pages: 1 -->
<svg width="2338pt" height="247pt"
 viewBox="0.00 0.00 2338.00 246.80" xmlns="http://www.w3.org/2000/svg" xmlns:xlink="http://www.w3.org/1999/xlink">
<g id="graph0" class="graph" transform="scale(1 1) rotate(0) translate(4 242.8)">
<title>dependencies</title>
<polygon fill="white" stroke="transparent" points="-4,4 -4,-242.8 2334,-242.8 2334,4 -4,4"/>
<text text-anchor="middle" x="1165" y="-8.2" font-family="sans-serif" font-size="14.00">dependencies</text>
<g id="clust1" class="cluster">
<title>cluster_AppModule</title>
<polygon fill="none" stroke="black" stroke-dasharray="1,5" points="8,-32.8 8,-230.8 2322,-230.8 2322,-32.8 8,-32.8"/>
</g>
<g id="clust17" class="cluster">
<title>cluster_AppModule_imports</title>
<polygon fill="none" stroke="black" points="2170,-40.8 2170,-92.8 2314,-92.8 2314,-40.8 2170,-40.8"/>
</g>
<g id="clust19" class="cluster">
<title>cluster_AppModule_bootstrap</title>
<polygon fill="none" stroke="black" points="1090,-170.8 1090,-222.8 1214,-222.8 1214,-170.8 1090,-170.8"/>
</g>
<g id="clust2" class="cluster">
<title>cluster_AppModule_declarations</title>
<polygon fill="none" stroke="black" points="16,-40.8 16,-92.8 2162,-92.8 2162,-40.8 16,-40.8"/>
</g>
<!-- AlertasComponent -->
<g id="node1" class="node">
<title>AlertasComponent</title>
<polygon fill="#ffffb3" stroke="black" points="2153.75,-84.8 2032.25,-84.8 2032.25,-48.8 2153.75,-48.8 2153.75,-84.8"/>
<text text-anchor="middle" x="2093" y="-62.6" font-family="Times,serif" font-size="14.00">AlertasComponent</text>
</g>
<!-- AppModule -->
<g id="node15" class="node">
<title>AppModule</title>
<polygon fill="#8dd3c7" stroke="black" points="1193.66,-149.8 1190.66,-153.8 1169.66,-153.8 1166.66,-149.8 1110.34,-149.8 1110.34,-113.8 1193.66,-113.8 1193.66,-149.8"/>
<text text-anchor="middle" x="1152" y="-127.6" font-family="Times,serif" font-size="14.00">AppModule</text>
</g>
<!-- AlertasComponent&#45;&gt;AppModule -->
<g id="edge1" class="edge">
<title>AlertasComponent&#45;&gt;AppModule</title>
<path fill="none" stroke="black" d="M2093,-85.09C2093,-107.01 2093,-140.8 2093,-140.8 2093,-140.8 1203.95,-140.8 1203.95,-140.8"/>
<polygon fill="black" stroke="black" points="1203.95,-137.3 1193.95,-140.8 1203.95,-144.3 1203.95,-137.3"/>
</g>
<!-- AppComponent -->
<g id="node2" class="node">
<title>AppComponent</title>
<polygon fill="#ffffb3" stroke="black" points="2013.94,-84.8 1908.06,-84.8 1908.06,-48.8 2013.94,-48.8 2013.94,-84.8"/>
<text text-anchor="middle" x="1961" y="-62.6" font-family="Times,serif" font-size="14.00">AppComponent</text>
</g>
<!-- AppComponent&#45;&gt;AppModule -->
<g id="edge2" class="edge">
<title>AppComponent&#45;&gt;AppModule</title>
<path fill="none" stroke="black" d="M1961,-84.83C1961,-105.57 1961,-136.8 1961,-136.8 1961,-136.8 1203.79,-136.8 1203.79,-136.8"/>
<polygon fill="black" stroke="black" points="1203.79,-133.3 1193.79,-136.8 1203.79,-140.3 1203.79,-133.3"/>
</g>
<!-- CadastrarComponent -->
<g id="node3" class="node">
<title>CadastrarComponent</title>
<polygon fill="#ffffb3" stroke="black" points="1890.47,-84.8 1755.53,-84.8 1755.53,-48.8 1890.47,-48.8 1890.47,-84.8"/>
<text text-anchor="middle" x="1823" y="-62.6" font-family="Times,serif" font-size="14.00">CadastrarComponent</text>
</g>
<!-- CadastrarComponent&#45;&gt;AppModule -->
<g id="edge3" class="edge">
<title>CadastrarComponent&#45;&gt;AppModule</title>
<path fill="none" stroke="black" d="M1823,-84.91C1823,-104.14 1823,-131.8 1823,-131.8 1823,-131.8 1203.72,-131.8 1203.72,-131.8"/>
<polygon fill="black" stroke="black" points="1203.72,-128.3 1193.72,-131.8 1203.72,-135.3 1203.72,-128.3"/>
</g>
<!-- CategoriaComponent -->
<g id="node4" class="node">
<title>CategoriaComponent</title>
<polygon fill="#ffffb3" stroke="black" points="1737.75,-84.8 1602.25,-84.8 1602.25,-48.8 1737.75,-48.8 1737.75,-84.8"/>
<text text-anchor="middle" x="1670" y="-62.6" font-family="Times,serif" font-size="14.00">CategoriaComponent</text>
</g>
<!-- CategoriaComponent&#45;&gt;AppModule -->
<g id="edge4" class="edge">
<title>CategoriaComponent&#45;&gt;AppModule</title>
<path fill="none" stroke="black" d="M1670,-85.1C1670,-103.07 1670,-127.8 1670,-127.8 1670,-127.8 1203.95,-127.8 1203.95,-127.8"/>
<polygon fill="black" stroke="black" points="1203.95,-124.3 1193.95,-127.8 1203.95,-131.3 1203.95,-124.3"/>
</g>
<!-- CategoriaDeleteComponent -->
<g id="node5" class="node">
<title>CategoriaDeleteComponent</title>
<polygon fill="#ffffb3" stroke="black" points="1584.29,-84.8 1411.71,-84.8 1411.71,-48.8 1584.29,-48.8 1584.29,-84.8"/>
<text text-anchor="middle" x="1498" y="-62.6" font-family="Times,serif" font-size="14.00">CategoriaDeleteComponent</text>
</g>
<!-- CategoriaDeleteComponent&#45;&gt;AppModule -->
<g id="edge5" class="edge">
<title>CategoriaDeleteComponent&#45;&gt;AppModule</title>
<path fill="none" stroke="black" d="M1498,-84.83C1498,-101.2 1498,-122.8 1498,-122.8 1498,-122.8 1203.74,-122.8 1203.74,-122.8"/>
<polygon fill="black" stroke="black" points="1203.74,-119.3 1193.74,-122.8 1203.74,-126.3 1203.74,-119.3"/>
</g>
<!-- CategoriaEditeComponent -->
<g id="node6" class="node">
<title>CategoriaEditeComponent</title>
<polygon fill="#ffffb3" stroke="black" points="1393.8,-84.8 1228.2,-84.8 1228.2,-48.8 1393.8,-48.8 1393.8,-84.8"/>
<text text-anchor="middle" x="1311" y="-62.6" font-family="Times,serif" font-size="14.00">CategoriaEditeComponent</text>
</g>
<!-- CategoriaEditeComponent&#45;&gt;AppModule -->
<g id="edge6" class="edge">
<title>CategoriaEditeComponent&#45;&gt;AppModule</title>
<path fill="none" stroke="black" d="M1311,-84.99C1311,-99.98 1311,-118.8 1311,-118.8 1311,-118.8 1203.78,-118.8 1203.78,-118.8"/>
<polygon fill="black" stroke="black" points="1203.78,-115.3 1193.78,-118.8 1203.78,-122.3 1203.78,-115.3"/>
</g>
<!-- EntrarComponent -->
<g id="node7" class="node">
<title>EntrarComponent</title>
<polygon fill="#ffffb3" stroke="black" points="1210.31,-84.8 1093.69,-84.8 1093.69,-48.8 1210.31,-48.8 1210.31,-84.8"/>
<text text-anchor="middle" x="1152" y="-62.6" font-family="Times,serif" font-size="14.00">EntrarComponent</text>
</g>
<!-- EntrarComponent&#45;&gt;AppModule -->
<g id="edge7" class="edge">
<title>EntrarComponent&#45;&gt;AppModule</title>
<path fill="none" stroke="black" d="M1152,-84.91C1152,-84.91 1152,-103.79 1152,-103.79"/>
<polygon fill="black" stroke="black" points="1148.5,-103.79 1152,-113.79 1155.5,-103.79 1148.5,-103.79"/>
</g>
<!-- MenuComponent -->
<g id="node8" class="node">
<title>MenuComponent</title>
<polygon fill="#ffffb3" stroke="black" points="1075.99,-84.8 962.01,-84.8 962.01,-48.8 1075.99,-48.8 1075.99,-84.8"/>
<text text-anchor="middle" x="1019" y="-62.6" font-family="Times,serif" font-size="14.00">MenuComponent</text>
</g>
<!-- MenuComponent&#45;&gt;AppModule -->
<g id="edge8" class="edge">
<title>MenuComponent&#45;&gt;AppModule</title>
<path fill="none" stroke="black" d="M1019,-84.99C1019,-99.98 1019,-118.8 1019,-118.8 1019,-118.8 1100.28,-118.8 1100.28,-118.8"/>
<polygon fill="black" stroke="black" points="1100.28,-122.3 1110.28,-118.8 1100.28,-115.3 1100.28,-122.3"/>
</g>
<!-- PostagensComponent -->
<g id="node9" class="node">
<title>PostagensComponent</title>
<polygon fill="#ffffb3" stroke="black" points="943.82,-84.8 806.18,-84.8 806.18,-48.8 943.82,-48.8 943.82,-84.8"/>
<text text-anchor="middle" x="875" y="-62.6" font-family="Times,serif" font-size="14.00">PostagensComponent</text>
</g>
<!-- PostagensComponent&#45;&gt;AppModule -->
<g id="edge9" class="edge">
<title>PostagensComponent&#45;&gt;AppModule</title>
<path fill="none" stroke="black" d="M875,-84.83C875,-101.2 875,-122.8 875,-122.8 875,-122.8 1100.23,-122.8 1100.23,-122.8"/>
<polygon fill="black" stroke="black" points="1100.23,-126.3 1110.23,-122.8 1100.23,-119.3 1100.23,-126.3"/>
</g>
<!-- ProdutoDeleteComponent -->
<g id="node10" class="node">
<title>ProdutoDeleteComponent</title>
<polygon fill="#ffffb3" stroke="black" points="788.2,-84.8 625.8,-84.8 625.8,-48.8 788.2,-48.8 788.2,-84.8"/>
<text text-anchor="middle" x="707" y="-62.6" font-family="Times,serif" font-size="14.00">ProdutoDeleteComponent</text>
</g>
<!-- ProdutoDeleteComponent&#45;&gt;AppModule -->
<g id="edge10" class="edge">
<title>ProdutoDeleteComponent&#45;&gt;AppModule</title>
<path fill="none" stroke="black" d="M707,-85.1C707,-103.07 707,-127.8 707,-127.8 707,-127.8 1100.14,-127.8 1100.14,-127.8"/>
<polygon fill="black" stroke="black" points="1100.14,-131.3 1110.14,-127.8 1100.14,-124.3 1100.14,-131.3"/>
</g>
<!-- ProdutoEditComponent -->
<g id="node11" class="node">
<title>ProdutoEditComponent</title>
<polygon fill="#ffffb3" stroke="black" points="607.5,-84.8 458.5,-84.8 458.5,-48.8 607.5,-48.8 607.5,-84.8"/>
<text text-anchor="middle" x="533" y="-62.6" font-family="Times,serif" font-size="14.00">ProdutoEditComponent</text>
</g>
<!-- ProdutoEditComponent&#45;&gt;AppModule -->
<g id="edge11" class="edge">
<title>ProdutoEditComponent&#45;&gt;AppModule</title>
<path fill="none" stroke="black" d="M533,-84.91C533,-104.14 533,-131.8 533,-131.8 533,-131.8 1099.94,-131.8 1099.94,-131.8"/>
<polygon fill="black" stroke="black" points="1099.94,-135.3 1109.94,-131.8 1099.94,-128.3 1099.94,-135.3"/>
</g>
<!-- RodapeComponent -->
<g id="node12" class="node">
<title>RodapeComponent</title>
<polygon fill="#ffffb3" stroke="black" points="440.1,-84.8 315.9,-84.8 315.9,-48.8 440.1,-48.8 440.1,-84.8"/>
<text text-anchor="middle" x="378" y="-62.6" font-family="Times,serif" font-size="14.00">RodapeComponent</text>
</g>
<!-- RodapeComponent&#45;&gt;AppModule -->
<g id="edge12" class="edge">
<title>RodapeComponent&#45;&gt;AppModule</title>
<path fill="none" stroke="black" d="M378,-84.83C378,-105.57 378,-136.8 378,-136.8 378,-136.8 1100.11,-136.8 1100.11,-136.8"/>
<polygon fill="black" stroke="black" points="1100.11,-140.3 1110.11,-136.8 1100.11,-133.3 1100.11,-140.3"/>
</g>
<!-- StartComponent -->
<g id="node13" class="node">
<title>StartComponent</title>
<polygon fill="#ffffb3" stroke="black" points="297.77,-84.8 190.23,-84.8 190.23,-48.8 297.77,-48.8 297.77,-84.8"/>
<text text-anchor="middle" x="244" y="-62.6" font-family="Times,serif" font-size="14.00">StartComponent</text>
</g>
<!-- StartComponent&#45;&gt;AppModule -->
<g id="edge13" class="edge">
<title>StartComponent&#45;&gt;AppModule</title>
<path fill="none" stroke="black" d="M244,-85.09C244,-107.01 244,-140.8 244,-140.8 244,-140.8 1100.33,-140.8 1100.33,-140.8"/>
<polygon fill="black" stroke="black" points="1100.33,-144.3 1110.33,-140.8 1100.33,-137.3 1100.33,-144.3"/>
</g>
<!-- UsuarioEditComponent -->
<g id="node14" class="node">
<title>UsuarioEditComponent</title>
<polygon fill="#ffffb3" stroke="black" points="172.48,-84.8 23.52,-84.8 23.52,-48.8 172.48,-48.8 172.48,-84.8"/>
<text text-anchor="middle" x="98" y="-62.6" font-family="Times,serif" font-size="14.00">UsuarioEditComponent</text>
</g>
<!-- UsuarioEditComponent&#45;&gt;AppModule -->
<g id="edge14" class="edge">
<title>UsuarioEditComponent&#45;&gt;AppModule</title>
<path fill="none" stroke="black" d="M98,-85.12C98,-108.46 98,-145.8 98,-145.8 98,-145.8 1100.03,-145.8 1100.03,-145.8"/>
<polygon fill="black" stroke="black" points="1100.03,-149.3 1110.03,-145.8 1100.03,-142.3 1100.03,-149.3"/>
</g>
<!-- AppComponent  -->
<g id="node17" class="node">
<title>AppComponent </title>
<polygon fill="#80b1d3" stroke="black" points="1206.44,-214.8 1097.56,-214.8 1097.56,-178.8 1206.44,-178.8 1206.44,-214.8"/>
<text text-anchor="middle" x="1152" y="-192.6" font-family="Times,serif" font-size="14.00">AppComponent </text>
</g>
<!-- AppModule&#45;&gt;AppComponent  -->
<g id="edge16" class="edge">
<title>AppModule&#45;&gt;AppComponent </title>
<path fill="none" stroke="black" stroke-dasharray="1,5" d="M1152,-149.91C1152,-149.91 1152,-168.79 1152,-168.79"/>
<polygon fill="black" stroke="black" points="1148.5,-168.79 1152,-178.79 1155.5,-168.79 1148.5,-168.79"/>
</g>
<!-- AppRoutingModule -->
<g id="node16" class="node">
<title>AppRoutingModule</title>
<polygon fill="#8dd3c7" stroke="black" points="2306.27,-84.8 2303.27,-88.8 2282.27,-88.8 2279.27,-84.8 2177.73,-84.8 2177.73,-48.8 2306.27,-48.8 2306.27,-84.8"/>
<text text-anchor="middle" x="2242" y="-62.6" font-family="Times,serif" font-size="14.00">AppRoutingModule</text>
</g>
<!-- AppRoutingModule&#45;&gt;AppModule -->
<g id="edge15" class="edge">
<title>AppRoutingModule&#45;&gt;AppModule</title>
<path fill="none" stroke="black" d="M2242,-85.12C2242,-108.46 2242,-145.8 2242,-145.8 2242,-145.8 1203.73,-145.8 1203.73,-145.8"/>
<polygon fill="black" stroke="black" points="1203.73,-142.3 1193.73,-145.8 1203.73,-149.3 1203.73,-142.3"/>
</g>
</g>
</svg>
